# AST/ASF file generated using VICON BodyLanguage
# -----------------------------------------------
:version 1.10
:name VICON
:units
  mass 1.0
  length 0.45
  angle deg
:documentation
   .ast/.asf automatically generated from VICON data using
   VICON BodyBuilder and BodyLanguage model FoxedUp or BRILLIANT.MOD
:root
   order TX TY TZ RX RY RZ
   axis XYZ
   position 0 0 0  
   orientation 0 0 0 
:bonedata
  begin
     id 1 
     name lhipjoint
     direction 0.635376 -0.686425 0.353719 
     length 2.47244 
     axis 0 0 0  XYZ
  end
  begin
     id 2 
     name lfemur
     direction 0.34202 -0.939693 0  
     length 7.25268  
     axis 0 0 20  XYZ
    dof rx ry rz
    limits (-160.0 20.0)
           (-70.0 70.0)
           (-60.0 70.0)
  end
  begin
     id 3 
     name ltibia
     direction 0.34202 -0.939693 0   
     length 7.6767   
     axis 0 0 20   XYZ
    dof rx
    limits (-10.0 170.0)
  end
  begin
     id 4 
     name lfoot
     direction 0.0803374 -0.220725 0.972022   
     length 2.22945   
     axis -90 7.62852e-016 20   XYZ
    dof rx rz
    limits (-45.0 90.0)
           (-70.0 20.0)
  end
  begin
     id 5 
     name ltoes
     direction 1.53579e-011 -4.21994e-011 1   
     length 1.11848   
     axis -90 7.62852e-016 20   XYZ
    dof rx
    limits (-90.0 20.0)
  end
  begin
     id 6 
     name rhipjoint
     direction -0.664428 -0.664335 0.342336   
     length 2.55466  
     axis 0 0 0  XYZ 
  end
  begin
     id 7 
     name rfemur
     direction -0.34202 -0.939693 0   
     length 6.83172   
     axis 0 0 -20   XYZ
    dof rx ry rz
    limits (-160.0 20.0)
           (-70.0 70.0)
           (-70.0 60.0)
  end
  begin
     id 8 
     name rtibia
     direction -0.34202 -0.939693 0   
     length 7.62692   
     axis 0 0 -20   XYZ
    dof rx
    limits (-10.0 170.0)
 end
 begin
     id 9 
     name rfoot
     direction -0.0949276 -0.260811 0.960711   
     length 2.19684  
     axis -90 -7.62852e-016 -20   XYZ
    dof rx rz
    limits (-45.0 90.0)
           (-20.0 70.0)
  end
  begin
     id 10 
     name rtoes
     direction -1.53543e-011 -4.2183e-011 1   
     length 1.09848   
     axis -90 -7.62852e-016 -20   XYZ
    dof rx
    limits (-90.0 20.0)
  end
  begin
     id 11 
     name lowerback
     direction 0.0118782 0.999815 -0.0151555   
     length 2.15772   
     axis 0 0 0   XYZ
    dof rx ry rz
    limits (-20.0 45.0)
           (-30.0 30.0)
           (-30.0 30.0)
  end
  begin
     id 12 
     name upperback
     direction 0.00130825 0.999065 0.0432113   
     length 2.14863   
     axis 0 0 0   XYZ
    dof rx ry rz
    limits (-20.0 45.0)
           (-30.0 30.0)
           (-30.0 30.0)
  end
  begin
     id 13 
     name thorax
     direction -0.00347005 0.998773 0.0494011   
     length 2.14936   
     axis 0 0 0   XYZ
    dof rx ry rz
    limits (-20.0 45.0)
           (-30.0 30.0)
           (-30.0 30.0)
  end
  begin
     id 14 
     name lowerneck
     direction -0.0262159 0.99424 0.103921   
     length 1.69373   
     axis 0 0 0   XYZ
    dof rx ry rz
    limits (-20.0 45.0)
           (-30.0 30.0)
           (-30.0 30.0)
  end
  begin
     id 15 
     name upperneck
     direction 0.0353511 0.977394 -0.20845   
     length 1.70857   
     axis 0 0 0   XYZ
    dof rx ry rz
    limits (-20.0 45.0)
           (-30.0 30.0)
           (-30.0 30.0)
  end
  begin
     id 16
     name head
     direction 0.0139214 0.996594 -0.0812836  
     length 1.72777  
     axis 0 0 0   XYZ
    dof rx ry rz
    limits (-20.0 45.0)
           (-30.0 30.0)
           (-30.0 30.0)
  end
  begin
     id 17 
     name lclavicle
     direction 0.841247 0.537205 -0.0609508  
     length 3.55371  
     axis 0 0 0   XYZ
    dof ry rz
    limits (-20.0 10.0)
           (0.0 20.0)
  end
  begin
     id 18 
     name lhumerus
     direction 1 -4.48964e-011 1.60116e-018   
     length 4.91377   
     axis -180 -30 -90   XYZ
    dof rx ry rz
    limits (-60.0 90.0)
           (-90.0 90.0)
           (-90.0 90.0)
  end
  begin
     id 19
     name lradius
     direction 1 -4.48989e-011 -8.93847e-027   
     length 3.00291   
     axis -180 -30 -90   XYZ
    dof rx
    limits (-10.0 170.0)
  end
  begin
     id 20
     name lwrist
     direction 1 -4.48932e-011 -7.31504e-027   
     length 1.50145   
     axis 5.74121e-015 90 90   XYZ
    dof ry
    limits (-180.0 0.0)
 end
  begin
     id 21 
     name lhand
     direction 1 -4.48971e-011 -1.46301e-026   
     length 0.450922   
     axis 9.33524e-015 90 90   XYZ
    dof rx rz
    limits (-90.0 90.0)
           (-45.0 45.0)
  end
  begin
     id 22 
     name lfingers
     direction 1 -4.49039e-011 -2.92602e-026   
     length 0.363545   
     axis 1.86705e-014 90 90   XYZ
    dof rx
    limits (0.0 90.0)
  end
  begin
     id 23
     name lthumb
     direction 0.707107 -6.34941e-011 0.707107   
     length 0.52198   
     axis -90 45 2.85299e-015   XYZ
    dof rx rz
    limits (-45.0 45.0)
           (-45.0 45.0)
  end
  begin
     id 24 
     name rclavicle
     direction -0.825079 0.56158 -0.0622297   
     length 3.39909  
     axis 0 0 0   XYZ 
    dof ry rz
    limits (-10.0 20.0)
           (-20.0 0.0)
  end
  begin
     id 25 
     name rhumerus
     direction -1 -4.48965e-011 1.61691e-027  
     length 4.86725   
     axis -180 30 90   XYZ
    dof rx ry rz
    limits (-90.0 60.0)
           (-90.0 90.0)
           (-90.0 90.0)
  end
  begin
     id 26 
     name rradius
     direction -1 -4.48964e-011 -2.25776e-027   
     length 3.17144   
     axis -180 30 90   XYZ
    dof rx
    limits (-10.0 170.0)
  end
  begin
     id 27 
     name rwrist
     direction -1 -4.48961e-011 -7.31504e-027   
     length 1.58572   
     axis 5.74121e-015 -90 -90   XYZ
    dof ry
    limits (-180.0 0.0)
  end
  begin
     id 28
     name rhand
     direction -1 -4.49013e-011 -1.46301e-026   
     length 0.419368   
     axis 9.33524e-015 -90 -90   XYZ
    dof rx rz
    limits (-90.0 90.0)
           (-45.0 45.0)
  end
  begin
     id 29
     name rfingers
     direction -1 -4.489e-011 -2.92602e-026   
     length 0.338105   
     axis 1.86705e-014 -90 -90   XYZ
    dof rx
    limits (0.0 90.0)
  end
  begin
     id 30
     name rthumb
     direction -0.707107 -6.35022e-011 0.707107   
     length 0.485453   
     axis -90 -45 -2.85299e-015   XYZ
    dof rx rz
    limits (-45.0 45.0)
           (-45.0 45.0)
  end
:hierarchy
  begin
    root lhipjoint rhipjoint lowerback
    lhipjoint lfemur
    lfemur ltibia
    ltibia lfoot
    lfoot ltoes
    rhipjoint rfemur
    rfemur rtibia
    rtibia rfoot
    rfoot rtoes
    lowerback upperback
    upperback thorax
    thorax lowerneck lclavicle rclavicle
    lowerneck upperneck
    upperneck head
    lclavicle lhumerus
    lhumerus lradius
    lradius lwrist
    lwrist lhand lthumb
    lhand lfingers
    rclavicle rhumerus
    rhumerus rradius
    rradius rwrist
    rwrist rhand rthumb
    rhand rfingers
  end

#!OML:ASF H:\Swim 2\Project 1\Capture day 1\Session 1\male.ASF
:FULLY-SPECIFIED
:DEGREES
779
root 0.0838585 14.8007 7.31968 108.201 6.77291 0.721114
lowerback -22.4883 -0.0596194 -6.8303
upperback -0.365742 1.11799 5.14802
thorax 12.0319 -0.068182 10.2445
lowerneck -1.81543 -2.31772 -2.41422
upperneck 42.0877 -1.40771 -3.18692
head 15.0259 -1.09988 -1.01795
rclavicle 3.4191e-014 -1.2921e-015
rhumerus 89.35 -15.8362 -20.7086
rradius 30.7782
rwrist -25.2972
rhand -13.6381 -7.79772
rfingers 7.12502
rthumb 12.4781 -37.4052
lclavicle 3.4191e-014 -1.2921e-015
lhumerus 98.3517 5.05485 47.1392
lradius 20.2919
lwrist -16.1595
lhand -33.124 -6.63006
lfingers 7.12502
lthumb -6.33392 23.2552
rfemur -45.7717 -5.64863 23.6309
rtibia 54.5436
rfoot 24.7319 0.132877
rtoes 9.12965
lfemur -44.4807 -5.42296 -21.9034
ltibia 67.2309
lfoot 2.07514 -7.79213
ltoes 2.13864
780
root 0.0848418 14.7934 7.31621 108.23 6.74532 0.697549
lowerback -22.564 0.0041352 -6.88995
upperback -0.431896 1.22509 5.158
thorax 11.9718 -0.0141502 10.3271
lowerneck -1.94101 -2.36167 -2.45921
upperneck 42.034 -1.41968 -3.28024
head 15.0267 -1.11728 -1.04985
rclavicle 3.18055e-015 -2.16675e-014
rhumerus 89.1568 -15.9926 -20.3696
rradius 30.818
rwrist -25.3985
rhand -14.2754 -7.64841
rfingers 7.12502
rthumb 11.8636 -37.2923
lclavicle 3.18055e-015 -2.16675e-014
lhumerus 98.4073 5.27462 46.7172
lradius 20.3183
lwrist -16.334
lhand -33.2277 -6.4202
lfingers 7.12502
lthumb -6.43404 23.4621
rfemur -45.6465 -5.15622 23.421
rtibia 53.1044
rfoot 24.6679 0.146153
rtoes 9.04435
lfemur -44.3998 -5.59668 -21.8092
ltibia 66.4553
lfoot 2.00377 -7.7937
ltoes 2.21526
781
root 0.0846827 14.7826 7.31236 108.318 6.74126 0.701271
lowerback -22.6841 0.063642 -6.93991
upperback -0.512427 1.32539 5.17927
thorax 11.9208 0.0369724 10.4173
lowerneck -2.06857 -2.41769 -2.51329
upperneck 41.976 -1.45148 -3.35936
head 15.0259 -1.14246 -1.07632
rclavicle 1.59028e-015 -1.21259e-014
rhumerus 88.9875 -16.1767 -20.057
rradius 30.868
rwrist -25.5862
rhand -14.8781 -7.48047
rfingers 7.12502
rthumb 11.2823 -37.157
lclavicle 1.59028e-015 -1.21259e-014
lhumerus 98.4722 5.51129 46.2854
lradius 20.357
lwrist -16.2701
lhand -33.4956 -6.17818
lfingers 7.12502
lthumb -6.69268 23.6961
rfemur -45.5179 -4.58982 23.2082
rtibia 51.4759
rfoot 24.445 0.124426
rtoes 9.03521
lfemur -44.3709 -5.81546 -21.6553
ltibia 65.5002
lfoot 1.90964 -7.68787
ltoes 2.25044
782
root 0.0836866 14.7685 7.30837 108.46 6.74824 0.731879
lowerback -22.8461 0.114647 -6.98872
upperback -0.603392 1.41594 5.20606
thorax 11.8829 0.0830517 10.5128
lowerneck -2.19952 -2.483 -2.56984
upperneck 41.9186 -1.50087 -3.42323
head 15.0263 -1.17361 -1.09811
rclavicle -1.51076e-014 -6.16232e-015
rhumerus 88.8544 -16.3804 -19.8066
rradius 30.9295
rwrist -25.8162
rhand -15.4496 -7.27072
rfingers 7.12502
rthumb 10.7311 -36.9766
lclavicle -1.51076e-014 -6.16232e-015
lhumerus 98.5493 5.76145 45.8839
lradius 20.404
lwrist -16.0493
lhand -33.9557 -5.88202
lfingers 7.12502
lthumb -7.13677 23.9776
rfemur -45.3863 -3.96421 22.9774
rtibia 49.6728
rfoot 24.0661 0.0310047
rtoes 9.07642
lfemur -44.3894 -6.07491 -21.4563
ltibia 64.3739
lfoot 1.78473 -7.45497
ltoes 2.24296
783
root 0.0821288 14.7513 7.30441 108.652 6.76838 0.794513
lowerback -23.0414 0.157996 -7.03287
upperback -0.703199 1.49638 5.23921
thorax 11.8549 0.124216 10.6119
lowerneck -2.3354 -2.56393 -2.62299
upperneck 41.8666 -1.57552 -3.47671
head 15.0303 -1.21347 -1.11941
rclavicle 1.27222e-014 1.97791e-014
rhumerus 88.7586 -16.6073 -19.6318
rradius 31.0041
rwrist -26.0224
rhand -15.9583 -7.01344
rfingers 7.12502
rthumb 10.2403 -36.7442
lclavicle 1.27222e-014 1.97791e-014
lhumerus 98.6453 6.01784 45.546
lradius 20.4612
lwrist -15.721
lhand -34.5914 -5.52484
lfingers 7.12502
lthumb -7.7504 24.3131
rfemur -45.2514 -3.29391 22.7305
rtibia 47.7122
rfoot 23.5005 -0.187354
rtoes 9.17074
lfemur -44.4553 -6.37698 -21.2081
ltibia 63.0888
lfoot 1.62711 -7.09132
ltoes 2.14026
784
root 0.0800017 14.7313 7.30097 108.881 6.79264 0.876407
lowerback -23.2646 0.195571 -7.0828
upperback -0.804985 1.5724 5.2735
thorax 11.8405 0.162186 10.7168
lowerneck -2.47555 -2.64719 -2.66652
upperneck 41.8121 -1.66252 -3.51001
head 15.0338 -1.25512 -1.13561
rclavicle 7.95139e-015 -3.45885e-014
rhumerus 88.6939 -16.8618 -19.5279
rradius 31.0963
rwrist -26.165
rhand -16.4129 -6.71054
rfingers 7.12502
rthumb 9.80178 -36.4624
lclavicle 7.95139e-015 -3.45885e-014
lhumerus 98.7725 6.27483 45.3015
lradius 20.5289
lwrist -15.31
lhand -35.3077 -5.14305
lfingers 7.12502
lthumb -8.44177 24.6682
rfemur -45.1151 -2.58724 22.4579
rtibia 45.6191
rfoot 22.7339 -0.551233
rtoes 9.32705
lfemur -44.559 -6.7065 -20.926
ltibia 61.655
lfoot 1.42961 -6.58867
ltoes 1.95373
785
root 0.0775228 14.7088 7.29829 109.141 6.81958 0.973575
lowerback -23.5104 0.229191 -7.14016
upperback -0.905056 1.64668 5.30852
thorax 11.84 0.197943 10.8288
lowerneck -2.62119 -2.7356 -2.68886
upperneck 41.7575 -1.76316 -3.53595
head 15.0378 -1.2987 -1.15444
rclavicle -1.98785e-014 -1.55052e-014
rhumerus 88.6557 -17.143 -19.4946
rradius 31.2061
rwrist -26.2013
rhand -16.8111 -6.3713
rfingers 7.12502
rthumb 9.4176 -36.1409
lclavicle -1.98785e-014 -1.55052e-014
lhumerus 98.9361 6.52436 45.1633
lradius 20.6139
lwrist -14.7973
lhand -36.0302 -4.77668
lfingers 7.12502
lthumb -9.13897 25.0053
rfemur -44.9821 -1.86441 22.1646
rtibia 43.4234
rfoot 21.7321 -1.05978
rtoes 9.43682
lfemur -44.6958 -7.0562 -20.6137
ltibia 60.0848
lfoot 1.18337 -5.94788
ltoes 1.70691
786
root 0.0748165 14.6842 7.29637 109.424 6.84873 1.07851
lowerback -23.7732 0.258884 -7.20142
upperback -0.999735 1.71811 5.34301
thorax 11.855 0.230882 10.9437
lowerneck -2.76851 -2.8266 -2.68758
upperneck 41.7001 -1.87216 -3.56187
head 15.04 -1.34259 -1.1787
rclavicle 3.97569e-015 -1.43125e-014
rhumerus 88.6357 -17.4517 -19.5035
rradius 31.3386
rwrist -26.1451
rhand -17.1747 -6.00897
rfingers 7.12502
rthumb 9.06677 -35.7941
lclavicle 3.97569e-015 -1.43125e-014
lhumerus 99.1354 6.76321 45.1412
lradius 20.7244
lwrist -14.1517
lhand -36.6401 -4.52219
lfingers 7.12502
lthumb -9.72738 25.2332
rfemur -44.8598 -1.14927 21.861
rtibia 41.1624
rfoot 20.4847 -1.69622
rtoes 9.50678
lfemur -44.8629 -7.416 -20.2749
ltibia 58.3915
lfoot 0.900824 -5.1748
ltoes 1.52297
787
root 0.0719441 14.658 7.29537 109.717 6.88309 1.18371
lowerback -24.0471 0.287574 -7.25852
upperback -1.08271 1.78826 5.3744
thorax 11.8896 0.261674 11.0542
lowerneck -2.91323 -2.91374 -2.66154
upperneck 41.6307 -1.98339 -3.58272
head 15.0345 -1.3838 -1.20543
rclavicle 1.74931e-014 3.16068e-014
rhumerus 88.6296 -17.7877 -19.5438
rradius 31.4899
rwrist -26.0226
rhand -17.5125 -5.63173
rfingers 7.12502
rthumb 8.7408 -35.4307
lclavicle 1.74931e-014 3.16068e-014
lhumerus 99.359 7.00131 45.1906
lradius 20.8704
lwrist -13.3607
lhand -37.0952 -4.41789
lfingers 7.12502
lthumb -10.1664 25.3165
rfemur -44.7503 -0.465357 21.5644
rtibia 38.8771
rfoot 19.0226 -2.43521
rtoes 9.6349
lfemur -45.0524 -7.77334 -19.9112
ltibia 56.5892
lfoot 0.588196 -4.27886
ltoes 1.43025
788
root 0.0689414 14.6305 7.2944 110.012 6.91802 1.2811
lowerback -24.3253 0.31459 -7.31626
upperback -1.15248 1.85696 5.40396
thorax 11.9415 0.289896 11.1643
lowerneck -3.04273 -2.99898 -2.616
upperneck 41.5541 -2.09741 -3.60253
head 15.0212 -1.42358 -1.23526
rclavicle -3.65764e-014 -5.96354e-014
rhumerus 88.6383 -18.1413 -19.6016
rradius 31.6565
rwrist -25.8805
rhand -17.8333 -5.25275
rfingers 7.12502
rthumb 8.43123 -35.0645
lclavicle -3.65764e-014 -5.96354e-014
lhumerus 99.6028 7.2308 45.3299
lradius 21.0371
lwrist -12.4284
lhand -37.3616 -4.55628
lfingers 7.12502
lthumb -10.4235 25.1653
rfemur -44.6584 0.167916 21.2807
rtibia 36.6127
rfoot 17.3876 -3.28456
rtoes 9.92564
lfemur -45.2582 -8.12094 -19.5324
ltibia 54.6926
lfoot 0.254785 -3.27273
ltoes 1.45331
789
root 0.0659001 14.6021 7.29362 110.303 6.96048 1.36277
lowerback -24.6063 0.342217 -7.36499
upperback -1.20733 1.92433 5.43207
thorax 12.0125 0.315883 11.2686
lowerneck -3.15338 -3.08592 -2.53438
upperneck 41.4727 -2.21832 -3.63285
head 14.9998 -1.46261 -1.27652
rclavicle -2.22639e-014 -2.48481e-014
rhumerus 88.6627 -18.5091 -19.6685
rradius 31.831
rwrist -25.7668
rhand -18.1248 -4.87755
rfingers 7.12502
rthumb 8.14986 -34.7004
lclavicle -2.22639e-014 -2.48481e-014
lhumerus 99.868 7.45151 45.5493
lradius 21.2084
lwrist -11.3164
lhand -37.4542 -4.98467
lfingers 7.12502
lthumb -10.5128 24.7324
rfemur -44.5954 0.732525 21.0332
rtibia 34.414
rfoot 15.6052 -4.21228
rtoes 10.2127
lfemur -45.4821 -8.44426 -19.1366
ltibia 52.7173
lfoot -0.0643218 -2.21032
ltoes 1.73275
790
root 0.0626834 14.5734 7.29311 110.568 6.99856 1.4069
lowerback -24.8768 0.372271 -7.41942
upperback -1.24347 1.99636 5.45715
thorax 12.0977 0.341756 11.3755
lowerneck -3.23517 -3.17412 -2.43235
upperneck 41.4042 -2.34264 -3.67206
head 14.9774 -1.50127 -1.32547
rclavicle -3.18055e-015 -5.18828e-014
rhumerus 88.7554 -18.8629 -19.8267
rradius 31.9796
rwrist -25.5709
rhand -18.3166 -4.6004
rfingers 7.12502
rthumb 7.9648 -34.4303
lclavicle -3.18055e-015 -5.18828e-014
lhumerus 100.191 7.63021 45.9677
lradius 21.3332
lwrist -10.0098
lhand -37.3115 -5.85719
lfingers 7.12502
lthumb -10.3751 23.8669
rfemur -44.5565 1.22814 20.8134
rtibia 32.3254
rfoot 13.738 -5.19891
rtoes 10.4927
lfemur -45.7068 -8.72304 -18.7514
ltibia 50.6793
lfoot -0.390823 -1.10228
ltoes 1.99447
791
root 0.0593829 14.5449 7.2922 110.808 7.04148 1.41018
lowerback -25.0662 0.414031 -7.46564
upperback -1.06932 2.05954 5.78169
thorax 11.953 0.437233 11.1715
lowerneck -3.28365 -3.23015 -2.36791
upperneck 41.3195 -2.44074 -3.64818
head 14.9416 -1.52863 -1.337
rclavicle -3.49861e-014 -2.52457e-014
rhumerus 88.9435 -19.1888 -20.1148
rradius 32.0935
rwrist -25.2791
rhand -18.3875 -4.49074
rfingers 7.12502
rthumb 7.89634 -34.3233
lclavicle -3.49861e-014 -2.52457e-014
lhumerus 100.578 7.75982 46.5886
lradius 21.3898
lwrist -8.48484
lhand -37.027 -7.12423
lfingers 7.12502
lthumb -10.1007 22.6133
rfemur -44.5558 1.65195 20.6372
rtibia 30.3913
rfoot 11.7697 -6.18649
rtoes 10.4272
lfemur -45.9384 -8.94833 -18.3717
ltibia 48.5959
lfoot -0.714158 0.0312564
ltoes 2.27587
792
root 0.0561732 14.5173 7.29202 111.008 7.07997 1.35733
lowerback -25.3049 0.457645 -7.51003
upperback -1.0617 2.14515 5.8061
thorax 12.0568 0.468618 11.2635
lowerneck -3.29164 -3.24633 -2.34439
upperneck 41.2218 -2.50315 -3.55581
head 14.8931 -1.5407 -1.30717
rclavicle -2.8625e-014 -2.94201e-014
rhumerus 89.2266 -19.4773 -20.5272
rradius 32.16
rwrist -24.8765
rhand -18.3823 -4.49208
rfingers 7.12502
rthumb 7.90136 -34.3244
lclavicle -2.8625e-014 -2.94201e-014
lhumerus 101.029 7.83844 47.3949
lradius 21.3634
lwrist -6.79221
lhand -36.6123 -8.69081
lfingers 7.12502
lthumb -9.70064 21.0658
rfemur -44.5994 2.01038 20.4929
rtibia 28.6524
rfoot 9.78431 -7.06551
rtoes 9.9701
lfemur -46.1693 -9.10265 -18.0233
ltibia 46.4846
lfoot -1.02179 1.16844
ltoes 2.49565
